<?xml version="1.0" encoding="UTF-8" standalone="no"?>
<!-- Created with Inkscape (http://www.inkscape.org/) -->

<svg
   xmlns:dc="http://purl.org/dc/elements/1.1/"
   xmlns:cc="http://creativecommons.org/ns#"
   xmlns:rdf="http://www.w3.org/1999/02/22-rdf-syntax-ns#"
   xmlns:svg="http://www.w3.org/2000/svg"
   xmlns="http://www.w3.org/2000/svg"
   xmlns:sodipodi="http://sodipodi.sourceforge.net/DTD/sodipodi-0.dtd"
   xmlns:inkscape="http://www.inkscape.org/namespaces/inkscape"
   version="1.1"
   id="svg869"
   width="210mm"
   height="40mm"
   viewBox="0 0 793.70079 151.1811"
   sodipodi:docname="txt_logo.svg"
   inkscape:version="0.92.4 (5da689c313, 2019-01-14)">
  <metadata
     id="metadata875">
    <rdf:RDF>
      <cc:Work
         rdf:about="">
        <dc:format>image/svg+xml</dc:format>
        <dc:type
           rdf:resource="http://purl.org/dc/dcmitype/StillImage" />
        <dc:title></dc:title>
      </cc:Work>
    </rdf:RDF>
  </metadata>
  <defs
     id="defs873" />
  <sodipodi:namedview
     pagecolor="#ffffff"
     bordercolor="#666666"
     borderopacity="1"
     objecttolerance="10"
     gridtolerance="10"
     guidetolerance="10"
     inkscape:pageopacity="0"
     inkscape:pageshadow="2"
     inkscape:window-width="1920"
     inkscape:window-height="995"
     id="namedview871"
     showgrid="true"
     showguides="false"
     inkscape:guide-bbox="true"
     inkscape:zoom="1.0981583"
     inkscape:cx="434.25295"
     inkscape:cy="21.370968"
     inkscape:window-x="0"
     inkscape:window-y="28"
     inkscape:window-maximized="1"
     inkscape:current-layer="svg869"
     units="mm"
     inkscape:document-units="mm">
    <sodipodi:guide
       position="74.779086,68.028197"
       orientation="0,1"
       id="guide915"
       inkscape:locked="false" />
    <sodipodi:guide
       position="69.066795,30.984853"
       orientation="0,1"
       id="guide917"
       inkscape:locked="false" />
    <sodipodi:guide
       position="18.8125,30.984856"
       orientation="1,0"
       id="guide1003"
       inkscape:locked="false" />
    <sodipodi:guide
       position="156.07089,539.02823"
       orientation="0,1"
       id="guide1087"
       inkscape:locked="false" />
    <sodipodi:guide
       position="156.07089,501.98477"
       orientation="0,1"
       id="guide1089"
       inkscape:locked="false" />
    <sodipodi:guide
       position="156.07089,531.61954"
       orientation="0,1"
       id="guide1091"
       inkscape:locked="false" />
    <inkscape:grid
       type="xygrid"
       id="grid1093" />
  </sodipodi:namedview>
  <flowRoot
     xml:space="preserve"
     id="flowRoot879"
     style="font-style:normal;font-weight:normal;font-size:40px;line-height:1.25;font-family:sans-serif;letter-spacing:0px;word-spacing:0px;fill:#000000;fill-opacity:1;stroke:none"
     transform="translate(601.18752,-425.75412)"><flowRegion
       id="flowRegion881"><rect
         id="rect883"
         width="164.79095"
         height="55.738113"
         x="-152.67397"
         y="-77.256935" /></flowRegion><flowPara
       id="flowPara885">WWW.etextile.org</flowPara></flowRoot>  <flowRoot
     xml:space="preserve"
     id="flowRoot895"
     style="font-style:normal;font-variant:normal;font-weight:600;font-stretch:normal;font-size:40px;line-height:1.25;font-family:'Free Avant Garde';-inkscape-font-specification:'Free Avant Garde, Semi-Bold';font-variant-ligatures:normal;font-variant-caps:normal;font-variant-numeric:normal;font-feature-settings:normal;text-align:start;letter-spacing:0px;word-spacing:0px;writing-mode:lr-tb;text-anchor:start;fill:#000000;fill-opacity:1;stroke:none"
     transform="translate(601.18752,-425.75412)"><flowRegion
       id="flowRegion897"><rect
         id="rect899"
         width="95.551056"
         height="44.659733"
         x="-211.18167"
         y="32.142097" /></flowRegion><flowPara
       id="flowPara901">www</flowPara><flowPara
       id="flowPara903" /></flowRoot>  <path
     inkscape:connector-curvature="0"
     id="path4817"
     style="font-style:normal;font-variant:normal;font-weight:600;font-stretch:normal;font-size:40px;line-height:1.25;font-family:'Free Avant Garde';-inkscape-font-specification:'Free Avant Garde, Semi-Bold';font-variant-ligatures:normal;font-variant-caps:normal;font-variant-numeric:normal;font-feature-settings:normal;text-align:start;letter-spacing:0px;word-spacing:0px;writing-mode:lr-tb;text-anchor:start;fill:#000000;fill-opacity:1;stroke:none;stroke-width:1"
     d="m 112.78763,100.41395 h 5.06803 l 6.61317,-22.359628 6.48955,22.359628 h 5.12984 l 12.36106,-34.504828 h -8.77635 l -6.24234,21.051689 -5.62428,-21.051689 h -6.55136 l -5.74789,21.051689 -6.11872,-21.051689 h -8.83816 z" />
  <path
     inkscape:connector-curvature="0"
     id="path4819"
     style="font-style:normal;font-variant:normal;font-weight:600;font-stretch:normal;font-size:40px;line-height:1.25;font-family:'Free Avant Garde';-inkscape-font-specification:'Free Avant Garde, Semi-Bold';font-variant-ligatures:normal;font-variant-caps:normal;font-variant-numeric:normal;font-feature-settings:normal;text-align:start;letter-spacing:0px;word-spacing:0px;writing-mode:lr-tb;text-anchor:start;fill:#000000;fill-opacity:1;stroke:none;stroke-width:1"
     d="m 162.28014,100.41395 h 5.06804 l 6.61316,-22.359628 6.48956,22.359628 h 5.12984 L 197.9418,65.909122 h -8.77636 l -6.24233,21.051689 -5.62428,-21.051689 h -6.55136 l -5.74789,21.051689 -6.11873,-21.051689 h -8.83815 z" />
  <path
     inkscape:connector-curvature="0"
     id="path4821"
     style="font-style:normal;font-variant:normal;font-weight:600;font-stretch:normal;font-size:40px;line-height:1.25;font-family:'Free Avant Garde';-inkscape-font-specification:'Free Avant Garde, Semi-Bold';font-variant-ligatures:normal;font-variant-caps:normal;font-variant-numeric:normal;font-feature-settings:normal;text-align:start;letter-spacing:0px;word-spacing:0px;writing-mode:lr-tb;text-anchor:start;fill:#000000;fill-opacity:1;stroke:none;stroke-width:1"
     d="m 211.77266,100.41395 h 5.06803 l 6.61316,-22.359628 6.48956,22.359628 h 5.12984 l 12.36106,-34.504828 h -8.77636 l -6.24233,21.051689 -5.62428,-21.051689 h -6.55136 l -5.74789,21.051689 -6.11872,-21.051689 h -8.83816 z" />
  <path
     inkscape:connector-curvature="0"
     id="path4823"
     style="font-style:normal;font-variant:normal;font-weight:600;font-stretch:normal;font-size:40px;line-height:1.25;font-family:'Free Avant Garde';-inkscape-font-specification:'Free Avant Garde, Semi-Bold';font-variant-ligatures:normal;font-variant-caps:normal;font-variant-numeric:normal;font-feature-settings:normal;text-align:start;letter-spacing:0px;word-spacing:0px;writing-mode:lr-tb;text-anchor:start;fill:#000000;fill-opacity:1;stroke:none;stroke-width:1"
     d="m 252.85965,100.41395 h 8.2201 v -7.972229 h -8.2201 z" />
  <path
     sodipodi:nodetypes="cccccccccccccccccccccccccccccccccccccccccccccccccccccccccccccccccccccccccccccccccccccccccccccccccccccccccccccccccccccccccccccccccccccccccccccccccccccccccccccccccccccccccccccccccccccccccccccccccccccccccccccccccc"
     inkscape:connector-curvature="0"
     id="path4825"
     style="font-style:normal;font-variant:normal;font-weight:600;font-stretch:normal;font-size:40px;line-height:1.25;font-family:'Free Avant Garde';-inkscape-font-specification:'Free Avant Garde, Semi-Bold';font-variant-ligatures:normal;font-variant-caps:normal;font-variant-numeric:normal;font-feature-settings:normal;text-align:start;letter-spacing:0px;word-spacing:0px;writing-mode:lr-tb;text-anchor:start;fill:#000000;fill-opacity:1;stroke:none;stroke-width:1"
     d="m 302.94028,86.836241 0.0442,-0.217 0.0401,-0.20816 0.0361,-0.20067 0.0323,-0.19456 0.0286,-0.18981 0.0252,-0.18644 0.0219,-0.18443 0.0189,-0.18379 0.016,-0.18453 0.0133,-0.18662 0.0107,-0.19008 0.008,-0.19493 0.006,-0.20113 0.004,-0.2087 0.002,-0.21764 7.5e-4,-0.22795 -0.0865,-1.97384 -0.25478,-1.899389 -0.41611,-1.81764 -0.57048,-1.7286 -0.71787,-1.63226 -0.85829,-1.52861 -0.99173,-1.41767 -1.11822,-1.29943 -1.23772,-1.17389 -1.35025,-1.04105 -1.45582,-0.90092 -1.55441,-0.75347 -1.64604,-0.59875 -1.73068,-0.43671 -1.80836,-0.26738 -1.87907,-0.0907 -1.86287,0.0927 -1.80501,0.27235 -1.73856,0.44333 -1.66351,0.60563 -1.57985,0.75928 -1.4876,0.90424 -1.38674,1.04055 -1.27729,1.16819 -1.15922,1.28716 -1.03257,1.39746 -0.89731,1.4991 -0.75345,1.59206 -0.60098,1.67637 -0.43993,1.752 -0.27026,1.818969 -0.092,1.87726 0.0935,1.86421 0.27482,1.80344 0.44774,1.73447 0.61225,1.65728 0.76832,1.57189 0.91599,1.47828 1.05523,1.37646 1.18606,1.26644 1.30846,1.14819 1.42244,1.02174 1.52801,0.88708 1.62515,0.7442 1.71387,0.593119 1.79418,0.43382 1.86606,0.26632 1.92953,0.0906 1.04017,-0.0241 1.01184,-0.0724 0.98413,-0.12072 0.95706,-0.16917 0.93063,-0.2177 0.90482,-0.26633 0.87965,-0.353265 0.85512,-0.325644 0.83122,-0.41276 0.80795,-0.46176 0.78532,-0.51084 0.76331,-0.56002 0.74196,-0.60928 0.72121,-0.65864 0.70112,-0.70809 0.68166,-0.75763 0.23831,-0.30156 0.22836,-0.29791 0.21859,-0.295 0.20898,-0.2928 0.19957,-0.29134 0.19034,-0.29062 0.18128,-0.29061 0.17241,-0.29135 0.16371,-0.2928 0.15521,-0.29499 0.14688,-0.29791 0.13872,-0.30157 0.13077,-0.30594 0.12297,-0.31105 0.11538,-0.31689 0.10794,-0.32346 h -0.56011 -0.56011 -0.56011 -0.56011 -0.56011 -0.56011 -0.56011 -0.56011 -0.56011 -0.56011 -0.56011 -0.56011 -0.56011 -0.56011 -0.56011 -0.56011 l -0.39364,0.44903 -0.39426,0.41345 -0.39698,0.37878 -0.40178,0.34502 -0.40866,0.31217 -0.41763,0.28025 -0.42866,0.24922 -0.4418,0.21911 -0.45701,0.18993 -0.47429,0.16163 -0.49368,0.13427 -0.51513,0.10781 -0.53867,0.0823 -0.56429,0.0576 -0.59199,0.0339 -0.62178,0.0111 -0.89996,-0.0304 -0.86765,-0.0901 -0.83342,-0.14836 -0.7973,-0.20502 -0.75927,-0.26013 -0.71934,-0.31368 -0.67752,-0.36568 -0.63379,-0.41614 -0.58817,-0.46504 -0.54063,-0.51239 -0.49119,-0.55819 -0.43987,-0.60244 -0.38663,-0.64514 -0.33149,-0.68628 -0.27446,-0.72589 -0.21552,-0.76392 h 1.65716 1.65715 1.65715 1.65716 1.65715 1.65716 1.65715 1.65716 1.65715 1.65715 1.65716 1.65715 1.65716 1.65715 1.65716 z m -26.76169,-7.287119 0.26714,-0.80568 0.31422,-0.75833 0.36057,-0.71034 0.4062,-0.66172 0.45111,-0.61244 0.49528,-0.56254 0.53875,-0.512 0.58147,-0.46081 0.62349,-0.40899 0.66477,-0.35653 0.70533,-0.30343 0.74516,-0.2497 0.78428,-0.19532 0.82266,-0.1403 0.86032,-0.0847 0.89727,-0.0284 0.92984,0.0284 0.88846,0.0847 0.84628,0.1403 0.80327,0.19532 0.75946,0.2497 0.71482,0.30343 0.66937,0.35653 0.62311,0.40899 0.57603,0.46081 0.52813,0.512 0.47943,0.56254 0.42991,0.61244 0.37956,0.66172 0.32842,0.71034 0.27645,0.75833 0.22367,0.80568 h -1.18589 -1.18589 -1.18589 -1.18589 -1.18589 -1.18589 -1.18589 -1.18589 -1.18588 -1.18589 -1.18589 -1.18589 -1.18589 -1.18589 -1.18589 z" />
  <path
     inkscape:connector-curvature="0"
     id="path4827"
     style="font-style:normal;font-variant:normal;font-weight:600;font-stretch:normal;font-size:40px;line-height:1.25;font-family:'Free Avant Garde';-inkscape-font-specification:'Free Avant Garde, Semi-Bold';font-variant-ligatures:normal;font-variant-caps:normal;font-variant-numeric:normal;font-feature-settings:normal;text-align:start;letter-spacing:0px;word-spacing:0px;writing-mode:lr-tb;text-anchor:start;fill:#000000;fill-opacity:1;stroke:none;stroke-width:1"
     d="m 309.8393,100.41395 h 8.2201 V 73.445382 h 4.94442 v -7.53626 H 318.0594 V 54.386753 h -8.2201 v 11.522369 h -4.01735 v 7.53626 h 4.01735 z" />
  <path
     sodipodi:nodetypes="cccccccccccccccccccccccccccccccccccccccccccccccccccccccccccccccccccccccccccccccccccccccccccccccccccccccccccccccccccccccccccccccccccccccccccccccccccccccccccccccccccccccccccccccccccccccccccccccccccccccccccccccccc"
     inkscape:connector-curvature="0"
     id="path4829"
     style="font-style:normal;font-variant:normal;font-weight:600;font-stretch:normal;font-size:40px;line-height:1.25;font-family:'Free Avant Garde';-inkscape-font-specification:'Free Avant Garde, Semi-Bold';font-variant-ligatures:normal;font-variant-caps:normal;font-variant-numeric:normal;font-feature-settings:normal;text-align:start;letter-spacing:0px;word-spacing:0px;writing-mode:lr-tb;text-anchor:start;fill:#000000;fill-opacity:1;stroke:none;stroke-width:1"
     d="m 361.12417,86.836241 0.0442,-0.217 0.04,-0.20816 0.0361,-0.20067 0.0323,-0.19456 0.0286,-0.18981 0.0252,-0.18644 0.0219,-0.18443 0.0189,-0.18379 0.016,-0.18453 0.0132,-0.18662 0.0107,-0.19008 0.008,-0.19493 0.006,-0.20113 0.004,-0.2087 0.002,-0.21764 7.5e-4,-0.22795 -0.0865,-1.97384 -0.25479,-1.899389 -0.41611,-1.81764 -0.57048,-1.7286 -0.71786,-1.63226 -0.85829,-1.52861 -0.99174,-1.41767 -1.11821,-1.29943 -1.23772,-1.17389 -1.35026,-1.04105 -1.45582,-0.90092 -1.55441,-0.75347 -1.64603,-0.59875 -1.73069,-0.43671 -1.80836,-0.26738 -1.87907,-0.0907 -1.86287,0.0927 -1.80501,0.27235 -1.73856,0.44333 -1.66351,0.60563 -1.57985,0.75928 -1.48759,0.90424 -1.38675,1.04055 -1.27728,1.16819 -1.15923,1.28716 -1.03257,1.39746 -0.8973,1.4991 -0.75345,1.59206 -0.60099,1.67637 -0.43992,1.752 -0.27027,1.818969 -0.092,1.87726 0.0935,1.86421 0.27482,1.80344 0.44774,1.73447 0.61224,1.65728 0.76833,1.57189 0.91599,1.47828 1.05523,1.37646 1.18605,1.26644 1.30846,1.14819 1.42244,1.02174 1.52801,0.88708 1.62515,0.7442 1.71387,0.593119 1.79418,0.43382 1.86607,0.26632 1.92953,0.0906 1.04017,-0.0241 1.01183,-0.0724 0.98414,-0.12072 0.95706,-0.16917 0.93062,-0.2177 0.90483,-0.26633 0.87965,-0.353265 0.85512,-0.325644 0.83122,-0.41276 0.80795,-0.46176 0.78531,-0.51084 0.76332,-0.56002 0.74195,-0.60928 0.72122,-0.65864 0.70112,-0.70809 0.68165,-0.75763 0.23832,-0.30156 0.22836,-0.29791 0.21858,-0.295 0.20898,-0.2928 0.19957,-0.29134 0.19034,-0.29062 0.18128,-0.29061 0.17241,-0.29135 0.16372,-0.2928 0.1552,-0.29499 0.14688,-0.29791 0.13873,-0.30157 0.13077,-0.30594 0.12297,-0.31105 0.11538,-0.31689 0.10794,-0.32346 h -0.56011 -0.56011 -0.56011 -0.56011 -0.56011 -0.56011 -0.56011 -0.56011 -0.56011 -0.56011 -0.56011 -0.56011 -0.56011 -0.56011 -0.56011 -0.56011 l -0.39364,0.44903 -0.39426,0.41345 -0.39698,0.37878 -0.40178,0.34502 -0.40866,0.31217 -0.41763,0.28025 -0.42866,0.24922 -0.4418,0.21911 -0.45701,0.18993 -0.47429,0.16163 -0.49368,0.13427 -0.51513,0.10781 -0.53867,0.0823 -0.56429,0.0576 -0.59199,0.0339 -0.62178,0.0111 -0.89996,-0.0304 -0.86765,-0.0901 -0.83342,-0.14836 -0.79729,-0.20502 -0.75928,-0.26013 -0.71934,-0.31368 -0.67752,-0.36568 -0.63379,-0.41614 -0.58816,-0.46504 -0.54064,-0.51239 -0.49119,-0.55819 -0.43987,-0.60244 -0.38663,-0.64514 -0.33149,-0.68628 -0.27446,-0.72589 -0.21552,-0.76392 h 1.65716 1.65715 1.65715 1.65716 1.65715 1.65716 1.65715 1.65716 1.65715 1.65715 1.65716 1.65715 1.65716 1.65715 1.65716 z m -26.76169,-7.287119 0.26714,-0.80568 0.31421,-0.75833 0.36057,-0.71034 0.4062,-0.66172 0.45111,-0.61244 0.49529,-0.56254 0.53874,-0.512 0.58148,-0.46081 0.62348,-0.40899 0.66477,-0.35653 0.70533,-0.30343 0.74517,-0.2497 0.78427,-0.19532 0.82266,-0.1403 0.86033,-0.0847 0.89726,-0.0284 0.92984,0.0284 0.88847,0.0847 0.84627,0.1403 0.80328,0.19532 0.75945,0.2497 0.71482,0.30343 0.66937,0.35653 0.62311,0.40899 0.57603,0.46081 0.52814,0.512 0.47942,0.56254 0.42991,0.61244 0.37957,0.66172 0.32841,0.71034 0.27645,0.75833 0.22367,0.80568 h -1.18589 -1.18589 -1.18589 -1.18589 -1.18588 -1.18589 -1.18589 -1.18589 -1.18589 -1.18589 -1.18589 -1.18589 -1.18589 -1.18589 -1.18588 z" />
  <path
     inkscape:connector-curvature="0"
     id="path4831"
     style="font-style:normal;font-variant:normal;font-weight:600;font-stretch:normal;font-size:40px;line-height:1.25;font-family:'Free Avant Garde';-inkscape-font-specification:'Free Avant Garde, Semi-Bold';font-variant-ligatures:normal;font-variant-caps:normal;font-variant-numeric:normal;font-feature-settings:normal;text-align:start;letter-spacing:0px;word-spacing:0px;writing-mode:lr-tb;text-anchor:start;fill:#000000;fill-opacity:1;stroke:none;stroke-width:1"
     d="m 363.5114,100.41395 h 9.88884 l 7.16941,-11.833779 7.16942,11.833779 h 9.88884 l -12.17564,-17.812959 10.4451,-16.691869 h -9.2708 l -6.05692,10.40128 -6.18052,-10.40128 h -9.2708 l 10.5069,16.691869 z" />
  <path
     inkscape:connector-curvature="0"
     id="path4833"
     style="font-style:normal;font-variant:normal;font-weight:600;font-stretch:normal;font-size:40px;line-height:1.25;font-family:'Free Avant Garde';-inkscape-font-specification:'Free Avant Garde, Semi-Bold';font-variant-ligatures:normal;font-variant-caps:normal;font-variant-numeric:normal;font-feature-settings:normal;text-align:start;letter-spacing:0px;word-spacing:0px;writing-mode:lr-tb;text-anchor:start;fill:#000000;fill-opacity:1;stroke:none;stroke-width:1"
     d="m 402.66794,100.41395 h 8.22011 V 73.445382 h 4.94442 v -7.53626 h -4.94442 V 54.386753 h -8.22011 v 11.522369 h -4.01734 v 7.53626 h 4.01734 z" />
  <path
     inkscape:connector-curvature="0"
     id="path4835"
     style="font-style:normal;font-variant:normal;font-weight:600;font-stretch:normal;font-size:40px;line-height:1.25;font-family:'Free Avant Garde';-inkscape-font-specification:'Free Avant Garde, Semi-Bold';font-variant-ligatures:normal;font-variant-caps:normal;font-variant-numeric:normal;font-feature-settings:normal;text-align:start;letter-spacing:0px;word-spacing:0px;writing-mode:lr-tb;text-anchor:start;fill:#000000;fill-opacity:1;stroke:none;stroke-width:1"
     d="m 420.02171,100.41395 h 8.2201 V 65.909122 h -8.2201 z m 0,-38.241808 h 8.2201 v -7.785389 h -8.2201 z" />
  <path
     inkscape:connector-curvature="0"
     id="path4837"
     style="font-style:normal;font-variant:normal;font-weight:600;font-stretch:normal;font-size:40px;line-height:1.25;font-family:'Free Avant Garde';-inkscape-font-specification:'Free Avant Garde, Semi-Bold';font-variant-ligatures:normal;font-variant-caps:normal;font-variant-numeric:normal;font-feature-settings:normal;text-align:start;letter-spacing:0px;word-spacing:0px;writing-mode:lr-tb;text-anchor:start;fill:#000000;fill-opacity:1;stroke:none;stroke-width:1"
     d="m 434.86946,100.41395 h 8.22011 V 54.386753 h -8.22011 z" />
  <path
     sodipodi:nodetypes="cccccccccccccccccccccccccccccccccccccccccccccccccccccccccccccccccccccccccccccccccccccccccccccccccccccccccccccccccccccccccccccccccccccccccccccccccccccccccccccccccccccccccccccccccccccccccccccccccccccccccccccccccc"
     inkscape:connector-curvature="0"
     id="path4839"
     style="font-style:normal;font-variant:normal;font-weight:600;font-stretch:normal;font-size:40px;line-height:1.25;font-family:'Free Avant Garde';-inkscape-font-specification:'Free Avant Garde, Semi-Bold';font-variant-ligatures:normal;font-variant-caps:normal;font-variant-numeric:normal;font-feature-settings:normal;text-align:start;letter-spacing:0px;word-spacing:0px;writing-mode:lr-tb;text-anchor:start;fill:#000000;fill-opacity:1;stroke:none;stroke-width:1"
     d="m 483.64832,86.836241 0.0442,-0.217 0.0401,-0.20816 0.0361,-0.20067 0.0323,-0.19456 0.0286,-0.18981 0.0252,-0.18644 0.0219,-0.18443 0.0189,-0.18379 0.016,-0.18453 0.0133,-0.18662 0.0107,-0.19008 0.008,-0.19493 0.006,-0.20113 0.004,-0.2087 0.002,-0.21764 7.5e-4,-0.22795 -0.0865,-1.97384 -0.25478,-1.899389 -0.41611,-1.81764 -0.57048,-1.7286 -0.71787,-1.63226 -0.85829,-1.52861 -0.99173,-1.41767 -1.11822,-1.29943 -1.23772,-1.17389 -1.35025,-1.04105 -1.45582,-0.90092 -1.55441,-0.75347 -1.64604,-0.59875 -1.73068,-0.43671 -1.80836,-0.26738 -1.87908,-0.0907 -1.86286,0.0927 -1.80501,0.27235 -1.73856,0.44333 -1.66351,0.60563 -1.57985,0.75928 -1.4876,0.90424 -1.38674,1.04055 -1.27729,1.16819 -1.15922,1.28716 -1.03257,1.39746 -0.89731,1.4991 -0.75345,1.59206 -0.60098,1.67637 -0.43993,1.752 -0.27026,1.818969 -0.092,1.87726 0.0935,1.86421 0.27482,1.80344 0.44774,1.73447 0.61225,1.65728 0.76832,1.57189 0.91599,1.47828 1.05523,1.37646 1.18606,1.26644 1.30846,1.14819 1.42244,1.02174 1.528,0.88708 1.62515,0.7442 1.71388,0.593119 1.79418,0.43382 1.86606,0.26632 1.92953,0.0906 1.04017,-0.0241 1.01184,-0.0724 0.98413,-0.12072 0.95706,-0.16917 0.93063,-0.2177 0.90482,-0.26633 0.87965,-0.353265 0.85512,-0.325644 0.83122,-0.41276 0.80795,-0.46176 0.78532,-0.51084 0.76331,-0.56002 0.74196,-0.60928 0.72121,-0.65864 0.70112,-0.70809 0.68165,-0.75763 0.23832,-0.30156 0.22836,-0.29791 0.21858,-0.295 0.20899,-0.2928 0.19957,-0.29134 0.19033,-0.29062 0.18129,-0.29061 0.1724,-0.29135 0.16372,-0.2928 0.15521,-0.29499 0.14688,-0.29791 0.13874,-0.30157 0.13076,-0.30594 0.12298,-0.31105 0.11537,-0.31689 0.10795,-0.32346 h -0.56011 -0.56011 -0.56011 -0.56012 -0.56011 -0.56011 -0.56011 -0.56011 -0.56011 -0.56011 -0.56011 -0.56011 -0.56011 -0.56011 -0.56011 -0.56011 l -0.39363,0.44903 -0.39427,0.41345 -0.39698,0.37878 -0.40178,0.34502 -0.40866,0.31217 -0.41762,0.28025 -0.42867,0.24922 -0.4418,0.21911 -0.457,0.18993 -0.4743,0.16163 -0.49367,0.13427 -0.51513,0.10781 -0.53867,0.0823 -0.56429,0.0576 -0.592,0.0339 -0.62178,0.0111 -0.89996,-0.0304 -0.86764,-0.0901 -0.83342,-0.14836 -0.7973,-0.20502 -0.75927,-0.26013 -0.71935,-0.31368 -0.67752,-0.36568 -0.63379,-0.41614 -0.58816,-0.46504 -0.54063,-0.51239 -0.4912,-0.55819 -0.43986,-0.60244 -0.38663,-0.64514 -0.3315,-0.68628 -0.27446,-0.72589 -0.21551,-0.76392 h 1.65715 1.65715 1.65716 1.65715 1.65716 1.65715 1.65716 1.65715 1.65715 1.65716 1.65715 1.65716 1.65715 1.65716 1.65715 z m -26.76169,-7.287119 0.26714,-0.80568 0.31422,-0.75833 0.36057,-0.71034 0.4062,-0.66172 0.45111,-0.61244 0.49528,-0.56254 0.53875,-0.512 0.58147,-0.46081 0.62349,-0.40899 0.66477,-0.35653 0.70533,-0.30343 0.74516,-0.2497 0.78428,-0.19532 0.82266,-0.1403 0.86032,-0.0847 0.89727,-0.0284 0.92984,0.0284 0.88846,0.0847 0.84628,0.1403 0.80327,0.19532 0.75946,0.2497 0.71482,0.30343 0.66937,0.35653 0.6231,0.40899 0.57603,0.46081 0.52814,0.512 0.47943,0.56254 0.42991,0.61244 0.37956,0.66172 0.32842,0.71034 0.27645,0.75833 0.22367,0.80568 h -1.18589 -1.18589 -1.18589 -1.18589 -1.18589 -1.18589 -1.18589 -1.18589 -1.18589 -1.18588 -1.18589 -1.18589 -1.18589 -1.18589 -1.18589 z" />
  <path
     inkscape:connector-curvature="0"
     id="path4841"
     style="font-style:normal;font-variant:normal;font-weight:600;font-stretch:normal;font-size:40px;line-height:1.25;font-family:'Free Avant Garde';-inkscape-font-specification:'Free Avant Garde, Semi-Bold';font-variant-ligatures:normal;font-variant-caps:normal;font-variant-numeric:normal;font-feature-settings:normal;text-align:start;letter-spacing:0px;word-spacing:0px;writing-mode:lr-tb;text-anchor:start;fill:#000000;fill-opacity:1;stroke:none;stroke-width:1"
     d="m 490.42373,100.41395 h 8.2201 v -7.972229 h -8.2201 z" />
  <path
     sodipodi:nodetypes="cccccccccccccccccccccccccccccccccccccccccccccccccccccccccccccccccccccccccccccccccccccccccccccccccccccccccccccccccccccccccccccccccc"
     inkscape:connector-curvature="0"
     id="path4843"
     style="font-style:normal;font-variant:normal;font-weight:600;font-stretch:normal;font-size:40px;line-height:1.25;font-family:'Free Avant Garde';-inkscape-font-specification:'Free Avant Garde, Semi-Bold';font-variant-ligatures:normal;font-variant-caps:normal;font-variant-numeric:normal;font-feature-settings:normal;text-align:start;letter-spacing:0px;word-spacing:0px;writing-mode:lr-tb;text-anchor:start;fill:#000000;fill-opacity:1;stroke:none;stroke-width:1"
     d="m 523.19888,65.099442 -1.84319,0.0941 -1.79186,0.27588 -1.73119,0.44831 -1.66122,0.61135 -1.5819,0.76499 -1.49327,0.90924 -1.39531,1.04407 -1.28803,1.16953 -1.17142,1.28558 -1.04548,1.39223 -0.91023,1.48948 -0.76564,1.57735 -0.61173,1.65581 -0.4485,1.72487 -0.27593,1.784549 -0.0941,1.83481 0.0941,1.84507 0.27605,1.79216 0.44878,1.73012 0.61229,1.65896 0.76656,1.57867 0.9116,1.48926 1.0474,1.39072 1.17396,1.28307 1.29131,1.16629 1.3994,1.04038 1.49826,0.90536 1.5879,0.7612 1.66829,0.607929 1.73945,0.44553 1.80138,0.27401 1.85406,0.0934 1.84458,-0.0933 1.79578,-0.27358 1.73729,-0.44438 1.66913,-0.605679 1.59125,-0.75749 1.50371,-0.89982 1.40649,-1.03266 1.29955,-1.15601 1.18295,-1.26987 1.05664,-1.37424 0.92066,-1.46913 0.77501,-1.55452 0.61963,-1.63043 0.45459,-1.69685 0.27986,-1.75378 0.0955,-1.80122 -0.0921,-1.89919 -0.27069,-1.838159 -0.44106,-1.76864 -0.60322,-1.69062 -0.75713,-1.60414 -0.90281,-1.50917 -1.04023,-1.4057 -1.16943,-1.29376 -1.29039,-1.17333 -1.40308,-1.04441 -1.50759,-0.90701 -1.6038,-0.76113 -1.69183,-0.60676 -1.77157,-0.4439 -1.84309,-0.27257 z m 0.0618,7.59854 1.01824,0.0546 0.98863,0.16003 0.95404,0.26002 0.91448,0.35453 0.86993,0.44359 0.82042,0.52715 0.7659,0.60526 0.70644,0.67787 0.64197,0.74503 0.57253,0.8067 0.49811,0.8629 0.41871,0.91363 0.33432,0.890704 0.24498,1.066825 0.15065,1.03297 0.0513,1.06179 -0.0513,1.07206 -0.15049,1.04058 -0.24469,1.0039 -0.33378,0.96203 -0.41779,0.91495 -0.49673,0.86267 -0.57061,0.8052 -0.63943,0.74251 -0.70315,0.67464 -0.76182,0.60156 -0.81542,0.52327 -0.86395,0.4398 -0.90741,0.35112 -0.94577,0.25724 -0.97912,0.15815 -1.00735,0.0539 -1.02842,-0.0539 -0.99619,-0.15837 -0.95925,-0.25781 -0.9176,-0.35225 -0.87125,-0.44165 -0.82019,-0.52604 -0.76441,-0.60542 -0.70395,-0.67978 -0.63875,-0.74912 -0.56886,-0.81343 -0.49426,-0.87274 -0.41496,-0.92702 -0.33093,-0.9763 -0.24221,-1.02053 -0.14879,-1.05978 -0.0506,-1.09398 0.052,-1.05013 0.15238,-1.02139 0.24745,-0.965525 0.33716,-0.969504 0.42155,-0.90288 0.50058,-0.85261 0.57428,-0.79695 0.64264,-0.73592 0.70564,-0.66949 0.76332,-0.5977 0.81564,-0.52051 0.86264,-0.43794 0.90428,-0.34999 0.94058,-0.25666 0.97155,-0.15795 z" />
  <path
     inkscape:connector-curvature="0"
     id="path4845"
     style="font-style:normal;font-variant:normal;font-weight:600;font-stretch:normal;font-size:40px;line-height:1.25;font-family:'Free Avant Garde';-inkscape-font-specification:'Free Avant Garde, Semi-Bold';font-variant-ligatures:normal;font-variant-caps:normal;font-variant-numeric:normal;font-feature-settings:normal;text-align:start;letter-spacing:0px;word-spacing:0px;writing-mode:lr-tb;text-anchor:start;fill:#000000;fill-opacity:1;stroke:none;stroke-width:1"
     d="m 546.16727,100.41395 h 8.2201 V 81.230761 c 0,-5.356339 2.41041,-8.034519 7.35483,-8.159079 v -7.97224 h -0.61805 c -3.52291,0 -5.25345,0.99653 -7.41664,4.17297 v -3.36329 h -7.54024 z" />
  <path
     sodipodi:nodetypes="cccccccccccccccccccccccccccccccccccccccccccccccccccccccccccccccccccccccccccccccccccccccccccccccccccccccccccccccccccccccccccccccccccccccccccccccccccccccccccccccccccccccccccccccccccccccccccccccccccccccccccccccccccccccccccccccccccccccccccccccccccccccccccccccccccccccccccccccccc"
     inkscape:connector-curvature="0"
     id="path4847"
     style="font-style:normal;font-variant:normal;font-weight:600;font-stretch:normal;font-size:40px;line-height:1.25;font-family:'Free Avant Garde';-inkscape-font-specification:'Free Avant Garde, Semi-Bold';font-variant-ligatures:normal;font-variant-caps:normal;font-variant-numeric:normal;font-feature-settings:normal;text-align:start;letter-spacing:0px;word-spacing:0px;writing-mode:lr-tb;text-anchor:start;fill:#000000;fill-opacity:1;stroke:none;stroke-width:1"
     d="m 592.54055,65.909122 v 0.27249 0.27249 0.27249 0.27249 0.27248 0.27249 0.27249 0.27249 0.27249 0.27249 0.27249 0.27248 0.27249 0.27249 0.27249 0.27249 l -0.48891,-0.63284 -0.51651,-0.59068 -0.54423,-0.54872 -0.57202,-0.50693 -0.5999,-0.46533 -0.62786,-0.42391 -0.65596,-0.38267 -0.68409,-0.34161 -0.71235,-0.30075 -0.74068,-0.26005 -0.7691,-0.21954 -0.79765,-0.17921 -0.82622,-0.13908 -0.85494,-0.0991 -0.88374,-0.0593 -0.9126,-0.0198 -1.78857,0.0878 -1.72239,0.25862 -1.64941,0.42211 -1.56964,0.57831 -1.48311,0.7272 -1.38975,0.8688 -1.28963,1.0031 -1.18271,1.1301 -1.069,1.2498 -0.94848,1.3622 -0.82121,1.4673 -0.6871,1.5651 -0.54625,1.65562 -0.39858,1.73881 -0.24413,1.814729 -0.0828,1.88333 0.0814,1.96078 0.24031,1.88386 0.39277,1.80012 0.5389,1.70951 0.67868,1.61208 0.81212,1.50779 0.93924,1.39667 1.06003,1.27871 1.17445,1.15389 1.28255,1.02225 1.3843,0.88374 1.47974,0.73841 1.56882,0.586229 1.65158,0.42721 1.72798,0.26134 1.79806,0.0886 0.88547,-0.0184 0.85014,-0.0559 0.81721,-0.0944 0.7866,-0.13393 0.75835,-0.17442 0.73245,-0.21594 0.70892,-0.25845 0.68774,-0.272105 0.6689,-0.376364 0.65244,-0.39202 0.63829,-0.43856 0.62654,-0.48608 0.61711,-0.53462 0.61006,-0.58417 0.60535,-0.6347 0.60299,-0.68626 -0.0913,1.34522 -0.15811,1.25644 -0.22509,1.16795 -0.29228,1.079719 -0.35963,0.99177 -0.42718,0.90409 -0.49489,0.81669 -0.5628,0.72956 -0.63088,0.64271 -0.69914,0.55612 -0.76759,0.46981 -0.83621,0.38378 -0.90502,0.29802 -0.974,0.21253 -1.04318,0.12733 -1.11253,0.0424 -0.70147,-0.0118 -0.66898,-0.0362 -0.63875,-0.0616 -0.61076,-0.0879 -0.58506,-0.1153 -0.56159,-0.14369 -0.54043,-0.17305 -0.5215,-0.20344 -0.50484,-0.23483 -0.49044,-0.26721 -0.47831,-0.3006 -0.46844,-0.335 -0.46085,-0.3704 -0.45549,-0.4068 -0.45241,-0.44421 -0.45161,-0.48262 h -0.58329 -0.58329 -0.58329 -0.58328 -0.58329 -0.58329 -0.58329 -0.58328 -0.58329 -0.58329 -0.58329 -0.58328 -0.58329 -0.58329 -0.58329 -0.58328 l 0.5638,1.26241 0.64684,1.19352 0.7274,1.1229 0.80552,1.05056 0.88124,0.97647 0.95446,0.90066 1.02527,0.8231 1.09361,0.74383 1.15953,0.6628 1.22299,0.58006 1.28402,0.49558 1.34258,0.40935 1.39873,0.32141 1.45241,0.23172 1.50365,0.14031 1.55245,0.0471 1.14356,-0.0255 1.11258,-0.0762 1.08107,-0.12658 1.04904,-0.17657 1.01643,-0.2262 0.98331,-0.27547 0.94962,-0.32437 0.9154,-0.37291 0.88063,-0.42108 0.84533,-0.46889 0.80948,-0.51632 0.77307,-0.56341 0.73615,-0.61012 0.69865,-0.65646 0.66064,-0.70245 0.62207,-0.74807 0.43609,-0.60831 0.40467,-0.63504 0.37372,-0.66369 0.34319,-0.69425 0.31316,-0.72674 0.28354,-0.76112 0.25439,-0.79744 0.22569,-0.83567 0.19743,-0.87581 0.16966,-0.91787 0.1423,-0.961839 0.11543,-1.00774 0.089,-1.05554 0.063,-1.10527 0.0374,-1.1569 0.0124,-1.21046 v -1.74782 -1.74782 -1.74782 -1.74782 -1.74782 -1.74782 -1.74782 -1.747819 -1.74782 -1.74782 -1.74782 -1.74781 -1.74782 -1.74782 -1.74782 -1.74782 h -0.49058 -0.49058 -0.49058 -0.49058 -0.49058 -0.49058 -0.49058 -0.49058 -0.49057 -0.49058 -0.49058 -0.49058 -0.49058 -0.49058 -0.49058 z m -10.25968,6.78886 1.07866,0.0498 1.03202,0.14715 0.98222,0.24112 0.92928,0.33171 0.87312,0.41894 0.81384,0.50278 0.75137,0.58325 0.68572,0.66034 0.61693,0.73407 0.54494,0.8044 0.46981,0.87137 0.39147,0.93496 0.31002,1.022124 0.22536,1.025065 0.13751,1.10548 0.0465,1.15557 -0.0451,1.1425 -0.13365,1.08996 -0.21927,1.03448 -0.3021,0.97609 -0.38213,0.91479 -0.45935,0.85055 -0.53378,0.7834 -0.6054,0.71334 -0.6742,0.64035 -0.7402,0.56444 -0.80339,0.48561 -0.86378,0.40387 -0.92136,0.3192 -0.97614,0.23161 -1.0281,0.14111 -1.07726,0.0477 -1.07588,-0.047 -1.02417,-0.13923 -0.97004,-0.22883 -0.91345,-0.31578 -0.85443,-0.40008 -0.79296,-0.48174 -0.72902,-0.56075 -0.66268,-0.63711 -0.59387,-0.71082 -0.52261,-0.7819 -0.44892,-0.85033 -0.37278,-0.9161 -0.29419,-0.97924 -0.21316,-1.03973 -0.12963,-1.09757 -0.0437,-1.15277 0.0437,-1.16583 0.12948,-1.1131 0.21259,-1.007205 0.29309,-1.048384 0.37092,-0.93628 0.44617,-0.87114 0.5188,-0.8029 0.58875,-0.73155 0.65613,-0.65711 0.72085,-0.57956 0.78296,-0.4989 0.84244,-0.41515 0.89931,-0.32829 0.95354,-0.23834 1.00512,-0.14527 z" />
  <rect
     y="-677.25842"
     x="64.137596"
     height="57.258392"
     width="7.408669"
     id="rect1022"
     style="opacity:0.98000004;fill:#000000;fill-opacity:1;fill-rule:nonzero;stroke:none;stroke-width:0.56692916;stroke-linecap:butt;stroke-linejoin:bevel;stroke-miterlimit:4;stroke-dasharray:none;stroke-opacity:1;paint-order:normal"
     transform="rotate(90)" />
  <rect
     style="opacity:0.98000004;fill:#000000;fill-opacity:1;fill-rule:nonzero;stroke:none;stroke-width:0.56692916;stroke-linecap:butt;stroke-linejoin:bevel;stroke-miterlimit:4;stroke-dasharray:none;stroke-opacity:1;paint-order:normal"
     id="rect1024"
     width="7.408669"
     height="57.258392"
     x="78.954979"
     y="-677.25842"
     transform="rotate(90)" />
  <rect
     y="-677.25842"
     x="93.772369"
     height="57.258392"
     width="7.408669"
     id="rect1026"
     style="opacity:0.98000004;fill:#000000;fill-opacity:1;fill-rule:nonzero;stroke:none;stroke-width:0.56692916;stroke-linecap:butt;stroke-linejoin:bevel;stroke-miterlimit:4;stroke-dasharray:none;stroke-opacity:1;paint-order:normal"
     transform="rotate(90)" />
  <rect
     style="opacity:0.98000004;fill:#000000;fill-opacity:1;fill-rule:nonzero;stroke:none;stroke-width:0.56692916;stroke-linecap:butt;stroke-linejoin:bevel;stroke-miterlimit:4;stroke-dasharray:none;stroke-opacity:1;paint-order:normal"
     id="rect1049"
     width="7.408669"
     height="57.258392"
     x="620"
     y="43.922634" />
  <rect
     y="43.922634"
     x="634.81738"
     height="57.258392"
     width="7.408669"
     id="rect1051"
     style="opacity:0.98000004;fill:#000000;fill-opacity:1;fill-rule:nonzero;stroke:none;stroke-width:0.56692916;stroke-linecap:butt;stroke-linejoin:bevel;stroke-miterlimit:4;stroke-dasharray:none;stroke-opacity:1;paint-order:normal" />
  <rect
     style="opacity:0.98000004;fill:#000000;fill-opacity:1;fill-rule:nonzero;stroke:none;stroke-width:0.56692916;stroke-linecap:butt;stroke-linejoin:bevel;stroke-miterlimit:4;stroke-dasharray:none;stroke-opacity:1;paint-order:normal"
     id="rect1053"
     width="7.408669"
     height="57.258392"
     x="649.6347"
     y="43.922634" />
</svg>
